<mxfile host="app.diagrams.net" agent="Mozilla/5.0 (Macintosh; Intel Mac OS X 10_15_7) AppleWebKit/537.36 (KHTML, like Gecko) Chrome/140.0.0.0 Safari/537.36" version="28.2.7">
  <diagram name="Page-1" id="kTiFyy1g3-DPj84efSVj">
    <mxGraphModel dx="516" dy="8" grid="1" gridSize="10" guides="1" tooltips="1" connect="1" arrows="1" fold="1" page="1" pageScale="1" pageWidth="450" pageHeight="300" math="0" shadow="0">
      <root>
        <mxCell id="0" />
        <mxCell id="1" parent="0" />
        <mxCell id="gFBPdCFJuegGmZ-uPdgT-30" value="" style="group" vertex="1" connectable="0" parent="1">
          <mxGeometry x="50" y="360" width="340" height="170" as="geometry" />
        </mxCell>
        <mxCell id="gFBPdCFJuegGmZ-uPdgT-1" value="" style="triangle;whiteSpace=wrap;html=1;" vertex="1" parent="gFBPdCFJuegGmZ-uPdgT-30">
          <mxGeometry x="155" width="97.5" height="130" as="geometry" />
        </mxCell>
        <mxCell id="gFBPdCFJuegGmZ-uPdgT-29" style="edgeStyle=orthogonalEdgeStyle;rounded=0;orthogonalLoop=1;jettySize=auto;html=1;exitX=0;exitY=0.5;exitDx=0;exitDy=0;entryX=1;entryY=0.5;entryDx=0;entryDy=0;endArrow=none;endFill=0;" edge="1" parent="gFBPdCFJuegGmZ-uPdgT-30" source="gFBPdCFJuegGmZ-uPdgT-2" target="gFBPdCFJuegGmZ-uPdgT-15">
          <mxGeometry relative="1" as="geometry" />
        </mxCell>
        <mxCell id="gFBPdCFJuegGmZ-uPdgT-2" value="&lt;font style=&quot;font-size: 21px;&quot;&gt;+&lt;/font&gt;" style="text;html=1;whiteSpace=wrap;strokeColor=none;fillColor=none;align=center;verticalAlign=middle;rounded=0;" vertex="1" parent="gFBPdCFJuegGmZ-uPdgT-30">
          <mxGeometry x="155" y="30" width="40" height="20" as="geometry" />
        </mxCell>
        <mxCell id="gFBPdCFJuegGmZ-uPdgT-26" style="edgeStyle=none;rounded=0;orthogonalLoop=1;jettySize=auto;html=1;exitX=0;exitY=0.5;exitDx=0;exitDy=0;endArrow=none;endFill=0;" edge="1" parent="gFBPdCFJuegGmZ-uPdgT-30" source="gFBPdCFJuegGmZ-uPdgT-3">
          <mxGeometry relative="1" as="geometry">
            <mxPoint x="140" y="90" as="targetPoint" />
          </mxGeometry>
        </mxCell>
        <mxCell id="gFBPdCFJuegGmZ-uPdgT-3" value="&lt;font style=&quot;font-size: 21px;&quot;&gt;-&lt;/font&gt;" style="text;html=1;whiteSpace=wrap;strokeColor=none;fillColor=none;align=center;verticalAlign=middle;rounded=0;" vertex="1" parent="gFBPdCFJuegGmZ-uPdgT-30">
          <mxGeometry x="155" y="80" width="40" height="20" as="geometry" />
        </mxCell>
        <mxCell id="gFBPdCFJuegGmZ-uPdgT-14" style="edgeStyle=none;rounded=0;orthogonalLoop=1;jettySize=auto;html=1;exitX=0;exitY=0.5;exitDx=0;exitDy=0;endArrow=none;endFill=0;" edge="1" parent="gFBPdCFJuegGmZ-uPdgT-30" source="gFBPdCFJuegGmZ-uPdgT-12">
          <mxGeometry relative="1" as="geometry">
            <mxPoint x="270" y="65.19999999999999" as="targetPoint" />
          </mxGeometry>
        </mxCell>
        <mxCell id="gFBPdCFJuegGmZ-uPdgT-12" value="OUT" style="text;html=1;whiteSpace=wrap;strokeColor=none;fillColor=none;align=center;verticalAlign=middle;rounded=0;" vertex="1" parent="gFBPdCFJuegGmZ-uPdgT-30">
          <mxGeometry x="300" y="55" width="40" height="20" as="geometry" />
        </mxCell>
        <mxCell id="gFBPdCFJuegGmZ-uPdgT-15" value="IN" style="text;html=1;whiteSpace=wrap;strokeColor=none;fillColor=none;align=center;verticalAlign=middle;rounded=0;" vertex="1" parent="gFBPdCFJuegGmZ-uPdgT-30">
          <mxGeometry y="30" width="40" height="20" as="geometry" />
        </mxCell>
        <mxCell id="gFBPdCFJuegGmZ-uPdgT-20" value="" style="pointerEvents=1;verticalLabelPosition=bottom;shadow=0;dashed=0;align=center;html=1;verticalAlign=top;shape=mxgraph.electrical.signal_sources.signal_ground;" vertex="1" parent="gFBPdCFJuegGmZ-uPdgT-30">
          <mxGeometry x="10" y="110" width="45" height="30" as="geometry" />
        </mxCell>
        <mxCell id="gFBPdCFJuegGmZ-uPdgT-23" value="" style="group" vertex="1" connectable="0" parent="gFBPdCFJuegGmZ-uPdgT-30">
          <mxGeometry x="40" y="80" width="100" height="20" as="geometry" />
        </mxCell>
        <mxCell id="gFBPdCFJuegGmZ-uPdgT-6" value="" style="pointerEvents=1;verticalLabelPosition=bottom;shadow=0;dashed=0;align=center;html=1;verticalAlign=top;shape=mxgraph.electrical.resistors.resistor_1;" vertex="1" parent="gFBPdCFJuegGmZ-uPdgT-23">
          <mxGeometry width="100" height="20" as="geometry" />
        </mxCell>
        <mxCell id="gFBPdCFJuegGmZ-uPdgT-16" value="Rin" style="text;html=1;whiteSpace=wrap;strokeColor=none;fillColor=none;align=center;verticalAlign=middle;rounded=0;" vertex="1" parent="gFBPdCFJuegGmZ-uPdgT-23">
          <mxGeometry x="30" width="40" height="20" as="geometry" />
        </mxCell>
        <mxCell id="gFBPdCFJuegGmZ-uPdgT-24" value="" style="group" vertex="1" connectable="0" parent="gFBPdCFJuegGmZ-uPdgT-30">
          <mxGeometry x="140" y="150" width="100" height="20" as="geometry" />
        </mxCell>
        <mxCell id="gFBPdCFJuegGmZ-uPdgT-7" value="" style="pointerEvents=1;verticalLabelPosition=bottom;shadow=0;dashed=0;align=center;html=1;verticalAlign=top;shape=mxgraph.electrical.resistors.resistor_1;" vertex="1" parent="gFBPdCFJuegGmZ-uPdgT-24">
          <mxGeometry width="100" height="20" as="geometry" />
        </mxCell>
        <mxCell id="gFBPdCFJuegGmZ-uPdgT-17" value="Rf" style="text;html=1;whiteSpace=wrap;strokeColor=none;fillColor=none;align=center;verticalAlign=middle;rounded=0;" vertex="1" parent="gFBPdCFJuegGmZ-uPdgT-24">
          <mxGeometry x="30" width="40" height="20" as="geometry" />
        </mxCell>
        <mxCell id="gFBPdCFJuegGmZ-uPdgT-25" style="edgeStyle=none;rounded=0;orthogonalLoop=1;jettySize=auto;html=1;exitX=0;exitY=0.5;exitDx=0;exitDy=0;exitPerimeter=0;endArrow=none;endFill=0;" edge="1" parent="gFBPdCFJuegGmZ-uPdgT-30" source="gFBPdCFJuegGmZ-uPdgT-7">
          <mxGeometry relative="1" as="geometry">
            <mxPoint x="140" y="90" as="targetPoint" />
          </mxGeometry>
        </mxCell>
        <mxCell id="gFBPdCFJuegGmZ-uPdgT-27" style="edgeStyle=orthogonalEdgeStyle;rounded=0;orthogonalLoop=1;jettySize=auto;html=1;exitX=1;exitY=0.5;exitDx=0;exitDy=0;exitPerimeter=0;entryX=1;entryY=0.5;entryDx=0;entryDy=0;endArrow=none;endFill=0;" edge="1" parent="gFBPdCFJuegGmZ-uPdgT-30" source="gFBPdCFJuegGmZ-uPdgT-7" target="gFBPdCFJuegGmZ-uPdgT-1">
          <mxGeometry relative="1" as="geometry" />
        </mxCell>
        <mxCell id="gFBPdCFJuegGmZ-uPdgT-28" style="edgeStyle=orthogonalEdgeStyle;rounded=0;orthogonalLoop=1;jettySize=auto;html=1;exitX=0;exitY=0.5;exitDx=0;exitDy=0;exitPerimeter=0;entryX=0.5;entryY=0;entryDx=0;entryDy=0;entryPerimeter=0;endArrow=none;endFill=0;" edge="1" parent="gFBPdCFJuegGmZ-uPdgT-30" source="gFBPdCFJuegGmZ-uPdgT-6" target="gFBPdCFJuegGmZ-uPdgT-20">
          <mxGeometry relative="1" as="geometry" />
        </mxCell>
      </root>
    </mxGraphModel>
  </diagram>
</mxfile>
